<svg xmlns="http://www.w3.org/2000/svg" width="248" height="239" fill="none"><path fill="#FDECC3" d="M248 239H0V0h248z"/><path fill="#59481E" d="M47.269 220h-.923l2.67-7.273h.91l2.67 7.273h-.924l-2.173-6.122h-.057L47.27 220zm.34-2.841h3.722v.781H47.61v-.781zm7-4.432V220h-.88v-7.273h.88zm8.925 1.818L61.517 220h-.852l-2.017-5.455h.909l1.505 4.347h.057l1.506-4.347h.909zm3.198 5.569c-.526 0-.98-.116-1.36-.348a2.34 2.34 0 0 1-.877-.98c-.204-.422-.306-.912-.306-1.471 0-.558.102-1.051.306-1.477a2.41 2.41 0 0 1 .859-1.001c.37-.242.8-.363 1.293-.363.284 0 .564.048.841.142.277.095.53.249.757.462.227.211.408.49.543.838.135.348.202.777.202 1.286v.355h-4.204v-.725h3.352c0-.307-.062-.582-.185-.823a1.385 1.385 0 0 0-.518-.572 1.45 1.45 0 0 0-.788-.21c-.334 0-.623.083-.867.249a1.63 1.63 0 0 0-.558.639 1.88 1.88 0 0 0-.195.845v.483c0 .412.071.761.213 1.048.145.284.345.5.6.65.256.146.553.22.892.22.22 0 .419-.031.596-.093.18-.063.335-.158.465-.284.13-.127.231-.286.302-.475l.81.227a1.795 1.795 0 0 1-.43.724c-.2.206-.45.367-.745.483a2.758 2.758 0 0 1-.998.171zm4.371-3.395V220h-.838v-5.455h.81v.853h.07c.129-.277.323-.5.583-.668.26-.17.597-.256 1.009-.256.369 0 .692.076.97.228.276.149.492.376.646.682.153.303.23.686.23 1.15V220h-.838v-3.409c0-.429-.111-.762-.334-1.002-.222-.241-.528-.362-.916-.362-.267 0-.506.058-.717.174a1.248 1.248 0 0 0-.494.508 1.68 1.68 0 0 0-.18.81zm5.85 0V220h-.838v-5.455h.81v.853h.07c.128-.277.322-.5.583-.668.26-.17.596-.256 1.008-.256.37 0 .693.076.97.228.277.149.492.376.646.682.154.303.23.686.23 1.15V220h-.837v-3.409c0-.429-.111-.762-.334-1.002-.222-.241-.528-.362-.916-.362-.268 0-.507.058-.718.174a1.249 1.249 0 0 0-.493.508 1.68 1.68 0 0 0-.181.81zm9.883 3.395c-.454 0-.855-.115-1.203-.345a2.328 2.328 0 0 1-.817-.98c-.197-.424-.295-.924-.295-1.502 0-.573.098-1.07.295-1.492.196-.421.47-.746.82-.976.35-.23.755-.345 1.215-.345.355 0 .635.06.841.178.209.116.367.249.476.398a6.5 6.5 0 0 1 .26.362h.07v-2.685h.838V220h-.81v-.838h-.099a5.339 5.339 0 0 1-.262.376 1.572 1.572 0 0 1-.487.402c-.21.116-.491.174-.841.174zm.114-.753c.336 0 .62-.088.852-.263a1.65 1.65 0 0 0 .53-.735c.12-.315.18-.678.18-1.09 0-.407-.059-.764-.177-1.069a1.55 1.55 0 0 0-.525-.717c-.233-.173-.519-.26-.86-.26-.355 0-.65.091-.888.274-.234.18-.41.425-.529.735a2.922 2.922 0 0 0-.174 1.037c0 .388.06.741.178 1.058.12.315.298.566.532.753.237.184.53.277.881.277zm4.038.639v-5.455h.838V220h-.838zm.426-6.364a.593.593 0 0 1-.423-.167.536.536 0 0 1-.174-.401c0-.156.058-.29.174-.401a.597.597 0 0 1 .423-.167c.163 0 .303.056.419.167a.53.53 0 0 1 .177.401.53.53 0 0 1-.177.401.58.58 0 0 1-.42.167zm3.552 6.492a2.22 2.22 0 0 1-.941-.195 1.622 1.622 0 0 1-.671-.572c-.166-.251-.249-.554-.249-.909 0-.313.062-.566.185-.76.123-.197.287-.351.493-.462.206-.111.434-.194.682-.248.251-.057.503-.102.757-.135.331-.043.6-.075.806-.096.208-.024.36-.063.454-.117.097-.055.146-.15.146-.285v-.028c0-.35-.096-.623-.288-.817-.19-.194-.477-.291-.863-.291-.4 0-.714.088-.94.263a1.55 1.55 0 0 0-.48.561l-.796-.284a1.9 1.9 0 0 1 .569-.774c.239-.187.5-.318.78-.391.285-.076.564-.114.839-.114.175 0 .376.022.604.064.23.041.45.125.664.252.215.128.394.321.536.579.142.258.213.604.213 1.037V220h-.838v-.739h-.043a1.465 1.465 0 0 1-.284.38 1.64 1.64 0 0 1-.529.345 2.05 2.05 0 0 1-.806.142zm.128-.753c.331 0 .61-.065.838-.195a1.336 1.336 0 0 0 .696-1.154v-.767c-.036.042-.114.081-.234.117a3.994 3.994 0 0 1-.413.088 17.434 17.434 0 0 1-.802.107 3.165 3.165 0 0 0-.61.139 1.052 1.052 0 0 0-.455.28c-.114.123-.17.291-.17.504 0 .292.107.512.322.661.218.147.494.22.828.22zm6.103 2.784a3.11 3.11 0 0 1-1.044-.156 2.223 2.223 0 0 1-.728-.405 2.21 2.21 0 0 1-.458-.533l.668-.468c.075.099.171.213.287.341.116.13.275.242.476.337.204.097.47.145.799.145.441 0 .804-.106 1.09-.319.287-.213.43-.547.43-1.002v-1.108h-.071c-.061.1-.149.223-.263.37a1.494 1.494 0 0 1-.483.387c-.208.111-.49.167-.845.167-.44 0-.835-.104-1.186-.313a2.189 2.189 0 0 1-.827-.909c-.201-.398-.302-.881-.302-1.449 0-.558.098-1.045.295-1.459a2.27 2.27 0 0 1 .82-.966 2.16 2.16 0 0 1 1.214-.345c.356 0 .637.06.846.178.21.116.371.249.483.398.113.146.201.267.262.362h.086v-.867h.809v5.611c0 .469-.106.85-.319 1.144a1.825 1.825 0 0 1-.853.65c-.355.139-.75.209-1.186.209zm-.028-2.997c.336 0 .62-.077.852-.231a1.43 1.43 0 0 0 .529-.664c.121-.289.181-.634.181-1.037 0-.393-.059-.74-.177-1.04a1.563 1.563 0 0 0-.526-.707c-.232-.171-.518-.256-.859-.256-.355 0-.651.09-.888.27-.234.18-.41.422-.529.725a2.797 2.797 0 0 0-.174 1.008c0 .379.06.714.177 1.005.121.289.299.516.533.682.237.163.53.245.881.245zm3.92.838v-5.455h.81v.824h.057c.099-.27.279-.489.54-.657.26-.168.554-.252.88-.252a7.106 7.106 0 0 1 .441.014v.853a2.503 2.503 0 0 0-.196-.032 1.874 1.874 0 0 0-.316-.025c-.265 0-.502.056-.71.167a1.26 1.26 0 0 0-.49.454 1.23 1.23 0 0 0-.178.657V220h-.838zm5.326.128c-.346 0-.659-.065-.941-.195a1.622 1.622 0 0 1-.671-.572c-.166-.251-.249-.554-.249-.909 0-.313.062-.566.185-.76.123-.197.288-.351.494-.462a2.59 2.59 0 0 1 .681-.248c.251-.057.503-.102.757-.135.331-.043.6-.075.806-.096.208-.024.36-.063.454-.117.098-.055.146-.15.146-.285v-.028c0-.35-.096-.623-.288-.817-.189-.194-.477-.291-.863-.291-.4 0-.713.088-.941.263-.227.175-.387.362-.479.561l-.795-.284c.142-.332.331-.59.568-.774a2.12 2.12 0 0 1 .781-.391 3.23 3.23 0 0 1 .838-.114c.175 0 .377.022.604.064.229.041.451.125.664.252.215.128.394.321.536.579.142.258.213.604.213 1.037V220h-.838v-.739h-.043a1.437 1.437 0 0 1-.284.38 1.64 1.64 0 0 1-.529.345 2.05 2.05 0 0 1-.806.142zm.128-.753c.331 0 .611-.065.838-.195.23-.131.402-.299.519-.505.118-.206.177-.422.177-.649v-.767c-.035.042-.114.081-.234.117a4.047 4.047 0 0 1-.412.088 17.434 17.434 0 0 1-.803.107 3.174 3.174 0 0 0-.611.139 1.05 1.05 0 0 0-.454.28c-.114.123-.171.291-.171.504 0 .292.108.512.324.661.217.147.493.22.827.22zm3.902.625v-5.455h.809v.853h.071c.114-.291.298-.518.551-.679.253-.163.557-.245.913-.245.359 0 .659.082.898.245.241.161.43.388.565.679h.056c.14-.282.35-.506.629-.671.279-.169.614-.253 1.005-.253.488 0 .887.153 1.197.459.31.303.465.775.465 1.416V220h-.838v-3.651c0-.402-.11-.69-.33-.862a1.225 1.225 0 0 0-.778-.26c-.384 0-.681.116-.891.348-.211.23-.317.521-.317.874V220h-.852v-3.736c0-.31-.1-.56-.302-.749-.201-.192-.46-.288-.777-.288-.218 0-.422.058-.611.174a1.315 1.315 0 0 0-.455.483c-.113.204-.17.439-.17.707V220h-.838zm13.549-1.335c-.286 0-.548-.07-.785-.21a1.634 1.634 0 0 1-.568-.568 1.512 1.512 0 0 1-.209-.785c0-.289.069-.55.209-.785.142-.236.332-.424.568-.564a1.5 1.5 0 0 1 .785-.213c.289 0 .551.071.785.213.237.14.425.328.565.564.142.235.213.496.213.785 0 .287-.071.548-.213.785-.14.237-.328.426-.565.568a1.5 1.5 0 0 1-.785.21zm7.997 1.463c-.345 0-.659-.065-.941-.195a1.629 1.629 0 0 1-.671-.572c-.166-.251-.248-.554-.248-.909 0-.313.061-.566.184-.76.123-.197.288-.351.494-.462.206-.111.433-.194.682-.248.251-.057.503-.102.756-.135.331-.043.6-.075.806-.096.208-.024.36-.063.455-.117.097-.055.145-.15.145-.285v-.028c0-.35-.096-.623-.287-.817-.19-.194-.477-.291-.863-.291-.4 0-.714.088-.941.263a1.552 1.552 0 0 0-.48.561l-.795-.284c.142-.332.331-.59.568-.774a2.12 2.12 0 0 1 .781-.391c.284-.076.564-.114.838-.114.175 0 .377.022.604.064.23.041.451.125.664.252.215.128.394.321.536.579.142.258.213.604.213 1.037V220h-.838v-.739h-.042a1.483 1.483 0 0 1-.284.38c-.133.135-.309.25-.53.345-.22.094-.488.142-.806.142zm.128-.753c.332 0 .611-.065.838-.195a1.336 1.336 0 0 0 .696-1.154v-.767c-.035.042-.113.081-.234.117a4.047 4.047 0 0 1-.412.088 17.434 17.434 0 0 1-.803.107 3.164 3.164 0 0 0-.61.139 1.053 1.053 0 0 0-.455.28c-.114.123-.17.291-.17.504 0 .292.107.512.323.661.218.147.493.22.827.22zm3.902.625v-5.455h.838V220h-.838zm.426-6.364a.591.591 0 0 1-.422-.167.533.533 0 0 1-.175-.401c0-.156.058-.29.175-.401a.596.596 0 0 1 .422-.167c.163 0 .303.056.419.167a.532.532 0 0 1 .178.401c0 .156-.06.29-.178.401a.581.581 0 0 1-.419.167zm6.407.909L144.837 220h-.852l-2.017-5.455h.909l1.506 4.347h.056l1.506-4.347h.909zm3.198 5.569c-.526 0-.979-.116-1.36-.348a2.338 2.338 0 0 1-.877-.98c-.204-.422-.306-.912-.306-1.471 0-.558.102-1.051.306-1.477a2.41 2.41 0 0 1 .859-1.001c.37-.242.8-.363 1.293-.363.284 0 .564.048.841.142.277.095.53.249.757.462.227.211.408.49.543.838.135.348.203.777.203 1.286v.355h-4.205v-.725h3.352c0-.307-.061-.582-.184-.823a1.387 1.387 0 0 0-.519-.572 1.447 1.447 0 0 0-.788-.21c-.334 0-.623.083-.867.249a1.631 1.631 0 0 0-.557.639c-.13.263-.196.545-.196.845v.483c0 .412.072.761.214 1.048.144.284.344.5.6.65.255.146.552.22.891.22.22 0 .419-.031.597-.093.18-.063.335-.158.465-.284.13-.127.231-.286.302-.475l.809.227a1.794 1.794 0 0 1-.429.724c-.202.206-.45.367-.746.483a2.76 2.76 0 0 1-.998.171zm3.533-.114v-5.455h.81v.824h.057c.099-.27.279-.489.54-.657.26-.168.554-.252.88-.252a7.106 7.106 0 0 1 .441.014v.853a2.503 2.503 0 0 0-.196-.032 1.866 1.866 0 0 0-.316-.025c-.265 0-.502.056-.71.167a1.26 1.26 0 0 0-.49.454 1.23 1.23 0 0 0-.178.657V220h-.838zm7.585-4.233-.753.213a1.39 1.39 0 0 0-.21-.366c-.09-.12-.213-.22-.369-.298a1.341 1.341 0 0 0-.6-.117c-.334 0-.612.077-.835.231-.22.151-.33.344-.33.579 0 .208.076.372.227.493.152.121.389.221.711.302l.809.199c.488.118.851.299 1.091.543.239.242.358.553.358.934 0 .313-.09.592-.27.838a1.79 1.79 0 0 1-.745.583 2.73 2.73 0 0 1-1.116.213c-.556 0-1.016-.121-1.381-.363-.364-.241-.595-.594-.692-1.058l.795-.199c.076.294.219.514.43.661.213.147.491.22.834.22.391 0 .701-.083.931-.249.232-.168.348-.369.348-.603a.636.636 0 0 0-.199-.476c-.133-.13-.336-.227-.611-.291l-.909-.213c-.5-.119-.867-.302-1.101-.551-.232-.251-.348-.564-.348-.941 0-.308.086-.58.259-.817.176-.236.413-.422.714-.557a2.505 2.505 0 0 1 1.03-.203c.54 0 .963.119 1.271.356.31.236.531.549.661.937zm3.648 4.347c-.526 0-.979-.116-1.36-.348a2.34 2.34 0 0 1-.878-.98c-.203-.422-.305-.912-.305-1.471 0-.558.102-1.051.305-1.477.206-.428.493-.762.86-1.001.369-.242.8-.363 1.292-.363.285 0 .565.048.842.142.277.095.529.249.756.462.228.211.409.49.544.838.135.348.202.777.202 1.286v.355h-4.204v-.725h3.352c0-.307-.062-.582-.185-.823a1.378 1.378 0 0 0-.518-.572 1.453 1.453 0 0 0-.789-.21c-.333 0-.622.083-.866.249a1.634 1.634 0 0 0-.558.639c-.13.263-.195.545-.195.845v.483c0 .412.071.761.213 1.048.145.284.345.5.6.65.256.146.553.22.892.22.22 0 .419-.031.596-.093.18-.063.335-.158.465-.284.131-.127.231-.286.302-.475l.81.227a1.796 1.796 0 0 1-.43.724c-.201.206-.45.367-.745.483a2.76 2.76 0 0 1-.998.171zm4.144-.057a.616.616 0 0 1-.451-.188.614.614 0 0 1-.188-.451c0-.176.062-.326.188-.451a.614.614 0 0 1 .451-.189c.175 0 .325.063.451.189a.615.615 0 0 1 .188.451c0 .116-.03.222-.089.319a.675.675 0 0 1-.231.235.614.614 0 0 1-.319.085zm4.203.057c-.455 0-.856-.115-1.204-.345a2.325 2.325 0 0 1-.817-.98c-.196-.424-.295-.924-.295-1.502 0-.573.099-1.07.295-1.492.196-.421.47-.746.82-.976.351-.23.756-.345 1.215-.345.355 0 .635.06.841.178.209.116.367.249.476.398.112.146.198.267.26.362h.071v-2.685h.838V220h-.81v-.838h-.099c-.062.099-.15.225-.263.376a1.575 1.575 0 0 1-.487.402c-.21.116-.491.174-.841.174zm.113-.753c.336 0 .62-.088.853-.263.232-.178.408-.423.529-.735.12-.315.181-.678.181-1.09 0-.407-.059-.764-.178-1.069a1.548 1.548 0 0 0-.525-.717c-.232-.173-.519-.26-.86-.26-.355 0-.651.091-.888.274-.234.18-.41.425-.529.735a2.922 2.922 0 0 0-.174 1.037c0 .388.06.741.178 1.058.121.315.298.566.533.753.236.184.53.277.88.277zm6.325.753c-.526 0-.979-.116-1.36-.348a2.338 2.338 0 0 1-.877-.98c-.204-.422-.306-.912-.306-1.471 0-.558.102-1.051.306-1.477a2.41 2.41 0 0 1 .859-1.001c.369-.242.8-.363 1.293-.363.284 0 .564.048.841.142a2.1 2.1 0 0 1 .757.462c.227.211.408.49.543.838.135.348.202.777.202 1.286v.355h-4.204v-.725h3.352c0-.307-.061-.582-.185-.823a1.378 1.378 0 0 0-.518-.572 1.45 1.45 0 0 0-.788-.21c-.334 0-.623.083-.867.249a1.631 1.631 0 0 0-.557.639 1.87 1.87 0 0 0-.196.845v.483c0 .412.071.761.213 1.048.145.284.345.5.6.65.256.146.553.22.892.22.22 0 .419-.031.596-.093.18-.063.335-.158.466-.284.13-.127.23-.286.301-.475l.81.227a1.785 1.785 0 0 1-.43.724 2.088 2.088 0 0 1-.745.483 2.76 2.76 0 0 1-.998.171zm7.397-4.347-.753.213a1.39 1.39 0 0 0-.21-.366 1.015 1.015 0 0 0-.369-.298 1.341 1.341 0 0 0-.6-.117c-.334 0-.612.077-.835.231-.22.151-.33.344-.33.579 0 .208.076.372.228.493.151.121.388.221.71.302l.809.199c.488.118.851.299 1.091.543.239.242.358.553.358.934 0 .313-.09.592-.27.838a1.79 1.79 0 0 1-.745.583c-.32.142-.692.213-1.115.213-.557 0-1.017-.121-1.382-.363-.364-.241-.595-.594-.692-1.058l.795-.199c.076.294.219.514.43.661.213.147.491.22.834.22.391 0 .701-.083.931-.249.232-.168.348-.369.348-.603a.636.636 0 0 0-.199-.476c-.133-.13-.336-.227-.611-.291l-.909-.213c-.499-.119-.866-.302-1.101-.551-.232-.251-.348-.564-.348-.941 0-.308.087-.58.259-.817.176-.236.414-.422.714-.557a2.505 2.505 0 0 1 1.03-.203c.54 0 .964.119 1.271.356.31.236.531.549.661.937zm1.361 4.233v-5.455h.838V220h-.838zm.426-6.364a.595.595 0 0 1-.423-.167.536.536 0 0 1-.174-.401c0-.156.058-.29.174-.401a.6.6 0 0 1 .423-.167c.163 0 .303.056.419.167a.532.532 0 0 1 .178.401c0 .156-.06.29-.178.401a.581.581 0 0 1-.419.167zm4.149 8.523a3.11 3.11 0 0 1-1.044-.156 2.211 2.211 0 0 1-1.187-.938l.668-.468c.076.099.172.213.288.341.116.13.274.242.476.337.203.097.469.145.799.145.44 0 .803-.106 1.09-.319.286-.213.429-.547.429-1.002v-1.108h-.071a4.43 4.43 0 0 1-.262.37 1.516 1.516 0 0 1-.483.387c-.209.111-.49.167-.845.167-.441 0-.836-.104-1.187-.313a2.19 2.19 0 0 1-.827-.909c-.201-.398-.302-.881-.302-1.449 0-.558.098-1.045.295-1.459a2.27 2.27 0 0 1 .82-.966c.351-.23.755-.345 1.215-.345.355 0 .637.06.845.178.211.116.372.249.483.398.113.146.201.267.263.362h.085v-.867h.81v5.611c0 .469-.107.85-.32 1.144a1.827 1.827 0 0 1-.852.65 3.23 3.23 0 0 1-1.186.209zm-.029-2.997c.336 0 .62-.077.852-.231.232-.154.409-.375.53-.664.12-.289.181-.634.181-1.037 0-.393-.06-.74-.178-1.04a1.554 1.554 0 0 0-.525-.707c-.232-.171-.519-.256-.86-.256-.355 0-.651.09-.888.27-.234.18-.41.422-.529.725a2.799 2.799 0 0 0-.174 1.008c0 .379.059.714.178 1.005.121.289.298.516.532.682.237.163.531.245.881.245zm4.759-2.443V220h-.838v-5.455h.809v.853h.071c.128-.277.322-.5.583-.668.26-.17.596-.256 1.008-.256.37 0 .693.076.97.228.277.149.492.376.646.682.154.303.231.686.231 1.15V220h-.838v-3.409c0-.429-.112-.762-.334-1.002-.223-.241-.528-.362-.916-.362-.268 0-.507.058-.718.174a1.251 1.251 0 0 0-.493.508c-.121.223-.181.493-.181.81z" opacity=".3"/><circle cx="116" cy="106" r="88.5" fill="#fff" stroke="#937ACC" stroke-dasharray="1 1"/><circle cx="154" cy="60" r="16" fill="#FDECC3"/><circle cx="162.5" cy="119.5" r="24.5" fill="#FDECC3"/><circle cx="131" cy="163" r="7" fill="#FDECC3"/><circle cx="83" cy="93" r="46" fill="#FDECC3"/><path fill="#6D5D35" d="M33.593 36h-1.977l3.012-8.727h2.378L40.015 36h-1.977l-2.187-6.733h-.068L33.593 36zm-.124-3.43h4.67v1.44h-4.67v-1.44zm9.441-5.297V36h-1.845v-8.727h1.845zm16.733 60.546a.899.899 0 0 0-.366-.668c-.215-.158-.508-.238-.877-.238-.251 0-.463.036-.636.107a.894.894 0 0 0-.397.288.692.692 0 0 0-.135.419.599.599 0 0 0 .081.34.854.854 0 0 0 .252.253c.107.068.23.129.37.18.14.05.289.093.447.129l.654.156c.317.07.608.166.873.284.265.118.495.264.69.437.193.172.344.376.45.61.109.235.165.504.167.807-.002.445-.116.83-.34 1.157-.223.325-.545.577-.967.757-.419.177-.924.266-1.516.266-.587 0-1.099-.09-1.534-.27a2.247 2.247 0 0 1-1.016-.799c-.241-.355-.368-.794-.38-1.317h1.488c.017.243.087.447.21.61.125.161.292.283.5.366.211.08.449.12.714.12.26 0 .487-.037.678-.113a1.04 1.04 0 0 0 .451-.316.73.73 0 0 0 .16-.465c0-.163-.048-.3-.145-.412a1.103 1.103 0 0 0-.42-.284 4.273 4.273 0 0 0-.67-.213l-.793-.199c-.613-.15-1.097-.382-1.452-.7-.355-.317-.531-.744-.53-1.282a1.92 1.92 0 0 1 .352-1.154c.24-.329.568-.585.984-.77.417-.185.89-.277 1.42-.277.54 0 1.012.092 1.414.277.405.184.72.441.945.77.224.33.34.71.348 1.144h-1.474zm6.077 2.859v-3.132h1.513V93H65.78v-.99h-.057a1.61 1.61 0 0 1-.614.77c-.284.194-.631.291-1.04.291-.365 0-.686-.083-.963-.249a1.709 1.709 0 0 1-.65-.706c-.154-.306-.232-.671-.234-1.097v-3.474h1.513v3.204c.002.322.088.576.259.763.17.187.399.28.685.28.183 0 .353-.04.512-.124a.975.975 0 0 0 .383-.376c.1-.166.148-.37.146-.614zm2.723 4.368v-7.5h1.491v.916h.067c.067-.147.163-.296.288-.448.128-.154.294-.281.497-.383.206-.105.462-.157.767-.157.398 0 .765.105 1.101.313.336.206.605.517.806.934.202.414.302.934.302 1.559 0 .608-.098 1.122-.295 1.541-.194.417-.459.733-.795.948-.334.213-.708.32-1.122.32-.294 0-.543-.049-.75-.146a1.55 1.55 0 0 1-.5-.366 1.9 1.9 0 0 1-.299-.45h-.046v2.919h-1.512zm1.48-4.773c0 .324.045.607.135.848.09.242.22.43.391.565.17.133.378.199.621.199a.975.975 0 0 0 .625-.203c.17-.137.3-.326.388-.568.09-.243.134-.524.134-.841a2.41 2.41 0 0 0-.131-.831 1.238 1.238 0 0 0-.387-.561.98.98 0 0 0-.629-.203 1 1 0 0 0-.625.196 1.22 1.22 0 0 0-.387.554c-.09.239-.135.52-.135.845zm7.334 2.834c-.562 0-1.045-.114-1.45-.341a2.335 2.335 0 0 1-.93-.973c-.218-.422-.326-.92-.326-1.495 0-.561.108-1.054.326-1.478.218-.423.525-.754.92-.99.398-.237.864-.356 1.4-.356.359 0 .694.058 1.004.174.313.114.585.286.817.515.234.23.416.519.547.867.13.346.195.75.195 1.214v.416h-4.606v-.938h3.182c0-.218-.047-.41-.142-.578a1.017 1.017 0 0 0-.394-.395 1.124 1.124 0 0 0-.579-.145c-.23 0-.433.053-.61.16a1.121 1.121 0 0 0-.413.422c-.1.175-.15.37-.152.586v.891c0 .27.05.503.149.7.102.196.245.348.43.454.184.107.403.16.656.16.168 0 .322-.023.462-.07a.927.927 0 0 0 .586-.561l1.4.091a1.92 1.92 0 0 1-.438.881c-.218.249-.5.443-.845.583-.343.137-.74.206-1.19.206zm3.49-.107v-5.454h1.467v.951h.057c.1-.338.266-.594.5-.767a1.32 1.32 0 0 1 .81-.263 2.307 2.307 0 0 1 .476.054v1.342a2.644 2.644 0 0 0-.64-.082c-.222 0-.42.049-.596.146a1.072 1.072 0 0 0-.561.987V93h-1.513zm9.343-5.454L88.183 93H86.48l-1.907-5.454h1.598l1.133 3.902h.056l1.13-3.902h1.601zM90.864 93v-5.454h1.513V93h-1.513zm.76-6.158a.822.822 0 0 1-.578-.223.725.725 0 0 1-.238-.544.71.71 0 0 1 .237-.536.815.815 0 0 1 .58-.227c.224 0 .416.076.575.227a.72.72 0 0 1 0 1.08.81.81 0 0 1-.576.223zm6.503 2.259-1.384.085a.716.716 0 0 0-.153-.32.811.811 0 0 0-.31-.23 1.05 1.05 0 0 0-.45-.09c-.235 0-.432.05-.593.15-.161.097-.242.227-.242.39 0 .13.052.24.156.33.105.09.284.163.537.218l.987.198c.53.11.926.285 1.186.526.26.241.39.559.39.952 0 .357-.105.67-.315.94a2.05 2.05 0 0 1-.86.633c-.362.149-.78.224-1.253.224-.722 0-1.298-.15-1.726-.451a1.757 1.757 0 0 1-.75-1.236l1.489-.078a.76.76 0 0 0 .326.504c.173.114.394.17.664.17.265 0 .479-.05.64-.152.163-.105.246-.238.248-.402a.417.417 0 0 0-.174-.337c-.114-.09-.289-.159-.526-.206l-.944-.188c-.533-.107-.93-.291-1.19-.554-.258-.263-.387-.598-.387-1.005 0-.35.095-.652.284-.906.192-.253.46-.448.806-.586.348-.137.756-.206 1.222-.206.689 0 1.231.146 1.626.437.398.291.63.688.696 1.19zm3.563 4.005c-.561 0-1.044-.113-1.449-.34a2.335 2.335 0 0 1-.93-.973c-.218-.422-.327-.92-.327-1.495 0-.561.109-1.054.327-1.478a2.41 2.41 0 0 1 .92-.99c.397-.237.864-.356 1.399-.356.36 0 .695.058 1.005.174a2.244 2.244 0 0 1 1.363 1.382c.131.346.196.75.196 1.214v.416h-4.606v-.938h3.182c0-.218-.048-.41-.142-.578a1.022 1.022 0 0 0-.395-.395 1.12 1.12 0 0 0-.578-.145c-.23 0-.434.053-.611.16a1.119 1.119 0 0 0-.412.422c-.1.175-.15.37-.153.586v.891c0 .27.05.503.149.7.102.196.245.348.43.454.185.107.404.16.657.16.168 0 .322-.023.462-.07a.932.932 0 0 0 .586-.561l1.399.091a1.91 1.91 0 0 1-.437.881c-.218.249-.5.443-.845.583a3.19 3.19 0 0 1-1.19.206zm5.501-.017c-.415 0-.79-.107-1.126-.32-.334-.215-.599-.531-.795-.948-.195-.419-.292-.933-.292-1.541 0-.625.101-1.145.302-1.56.202-.416.469-.727.803-.933a2.055 2.055 0 0 1 1.104-.313c.306 0 .56.052.764.157.206.102.371.23.497.383.128.152.225.3.291.448h.046v-2.735h1.509V93h-1.491v-.874h-.064a1.956 1.956 0 0 1-.302.451 1.509 1.509 0 0 1-.5.366 1.729 1.729 0 0 1-.746.146zm.479-1.204c.244 0 .45-.066.618-.199.171-.135.301-.323.391-.565.092-.241.138-.524.138-.848 0-.325-.045-.606-.135-.845a1.21 1.21 0 0 0-.39-.554.996.996 0 0 0-.622-.196.98.98 0 0 0-.628.203c-.171.135-.3.322-.387.56a2.4 2.4 0 0 0-.132.832c0 .317.044.598.132.841.09.242.219.431.387.569a.98.98 0 0 0 .628.202zm-42.597 5.842V105H63.56v-7.273h1.513zm3.697 7.38c-.56 0-1.044-.114-1.449-.341a2.337 2.337 0 0 1-.93-.973c-.218-.422-.327-.92-.327-1.495 0-.561.11-1.054.327-1.478a2.41 2.41 0 0 1 .92-.99c.397-.237.864-.356 1.399-.356.36 0 .695.058 1.005.174a2.244 2.244 0 0 1 1.363 1.382c.13.345.196.75.196 1.214v.416h-4.606v-.938h3.182c0-.218-.048-.41-.142-.579a1.02 1.02 0 0 0-.394-.394 1.125 1.125 0 0 0-.58-.145 1.132 1.132 0 0 0-1.023.582c-.099.175-.15.371-.152.586v.891c0 .27.05.503.15.7.101.196.244.348.43.454.184.107.403.16.656.16.168 0 .322-.023.462-.071a.93.93 0 0 0 .586-.561l1.399.093a1.91 1.91 0 0 1-.437.88c-.218.249-.5.443-.845.583-.343.137-.74.206-1.19.206zm5.046-.004a2.27 2.27 0 0 1-.93-.181 1.497 1.497 0 0 1-.646-.543c-.157-.242-.235-.543-.235-.902 0-.303.056-.558.167-.764.111-.206.263-.372.455-.497.191-.126.41-.22.653-.284.246-.064.504-.109.774-.135.317-.033.573-.064.767-.092.194-.031.335-.076.423-.135a.298.298 0 0 0 .131-.263v-.021c0-.225-.07-.399-.213-.523-.14-.123-.338-.184-.596-.184-.273 0-.49.06-.65.181a.831.831 0 0 0-.32.447l-1.399-.113c.071-.332.21-.618.419-.86.208-.243.477-.43.806-.56a3.083 3.083 0 0 1 1.15-.2c.304 0 .594.036.87.107.28.071.528.181.743.33.218.149.39.341.515.576.125.232.188.51.188.834V105h-1.435v-.756h-.042a1.56 1.56 0 0 1-.352.451 1.634 1.634 0 0 1-.529.301 2.188 2.188 0 0 1-.714.107zm.434-1.044c.222 0 .419-.044.589-.131.17-.09.304-.211.401-.363a.932.932 0 0 0 .146-.515v-.578a.84.84 0 0 1-.195.085 3.69 3.69 0 0 1-.274.067 16.28 16.28 0 0 1-.305.054l-.277.039a1.862 1.862 0 0 0-.465.124.746.746 0 0 0-.31.231.56.56 0 0 0-.11.355c0 .206.075.363.224.472.152.107.343.16.576.16zm3.812.941v-5.454h1.466v.951h.057c.1-.338.267-.594.5-.767a1.32 1.32 0 0 1 .81-.263 2.306 2.306 0 0 1 .476.054v1.342a2.755 2.755 0 0 0-.64-.082c-.221 0-.42.049-.595.146a1.07 1.07 0 0 0-.561.987V105h-1.513zm5.604-3.153V105h-1.513v-5.454h1.442v.962h.064a1.52 1.52 0 0 1 .607-.753c.284-.187.629-.28 1.034-.28.379 0 .709.082.99.248.282.166.501.402.657.71.157.306.235.67.235 1.094V105h-1.513v-3.203c.002-.334-.083-.594-.256-.781-.172-.19-.41-.284-.713-.284a1.08 1.08 0 0 0-.54.131.917.917 0 0 0-.362.383 1.33 1.33 0 0 0-.132.601zM88.374 105v-5.454h1.513V105h-1.513zm.76-6.158a.822.822 0 0 1-.579-.223.725.725 0 0 1-.238-.544.71.71 0 0 1 .238-.536.815.815 0 0 1 .58-.227c.224 0 .416.076.574.227a.72.72 0 0 1 0 1.08.81.81 0 0 1-.575.223zm3.478 3.005V105h-1.513v-5.454h1.442v.962h.064a1.52 1.52 0 0 1 .607-.753c.284-.187.628-.28 1.033-.28.379 0 .71.082.99.248.283.166.502.402.658.71.156.306.234.67.234 1.094V105h-1.513v-3.203c.003-.334-.082-.594-.255-.781-.173-.19-.411-.284-.714-.284a1.08 1.08 0 0 0-.54.131.917.917 0 0 0-.362.383 1.332 1.332 0 0 0-.131.601zm7.165 5.312c-.49 0-.91-.067-1.26-.202a2.093 2.093 0 0 1-.832-.544 1.665 1.665 0 0 1-.401-.774l1.4-.188c.042.109.11.211.202.305a.983.983 0 0 0 .365.228c.154.059.341.088.561.088.329 0 .601-.08.814-.241.215-.159.323-.425.323-.799v-.998h-.064a1.437 1.437 0 0 1-.298.43 1.5 1.5 0 0 1-.512.33 1.968 1.968 0 0 1-.746.128 2.24 2.24 0 0 1-1.118-.284c-.334-.192-.6-.484-.8-.877-.196-.396-.294-.895-.294-1.499 0-.618.1-1.134.302-1.548.201-.415.469-.725.803-.93a2.074 2.074 0 0 1 1.104-.31c.305 0 .561.052.767.157.206.102.372.23.497.383.128.152.226.301.295.448h.057v-.916h1.502v5.507c0 .464-.114.853-.341 1.165a2.043 2.043 0 0 1-.945.703c-.4.159-.86.238-1.381.238zm.032-3.373c.244 0 .45-.061.618-.182.17-.123.3-.298.39-.525.093-.23.139-.504.139-.824 0-.32-.045-.597-.135-.831-.09-.237-.22-.42-.391-.55a.987.987 0 0 0-.621-.196.981.981 0 0 0-.629.203c-.17.132-.3.317-.387.554-.087.236-.131.51-.131.82 0 .315.044.587.131.817.09.227.22.403.387.529.17.123.38.185.629.185zm56.315-54.059h1.538v4.723c0 .53-.127.995-.38 1.392a2.543 2.543 0 0 1-1.055.93c-.452.22-.979.331-1.58.331-.604 0-1.132-.11-1.584-.33a2.534 2.534 0 0 1-1.054-.93c-.251-.398-.377-.862-.377-1.393v-4.723h1.538v4.592c0 .277.06.523.181.738.123.216.296.385.518.508.223.123.482.185.778.185.298 0 .558-.062.778-.185.222-.123.394-.292.515-.508a1.46 1.46 0 0 0 .184-.738v-4.592zm4.287 4.12V57h-1.512v-5.455h1.441v.963h.064a1.52 1.52 0 0 1 .608-.753c.284-.187.628-.28 1.033-.28.379 0 .709.082.991.248.281.166.5.403.657.71.156.306.234.67.234 1.094V57h-1.513v-3.203c.003-.334-.083-.594-.255-.781-.173-.19-.411-.285-.714-.285a1.08 1.08 0 0 0-.54.132.911.911 0 0 0-.362.383 1.34 1.34 0 0 0-.132.6zm9.247-.746-1.385.085a.721.721 0 0 0-.153-.32.808.808 0 0 0-.309-.23 1.049 1.049 0 0 0-.451-.09c-.234 0-.432.05-.593.15-.161.097-.241.227-.241.39 0 .13.052.24.156.33.104.09.283.163.536.218l.987.198c.531.11.926.285 1.186.526.261.241.391.559.391.952 0 .357-.105.67-.316.94a2.05 2.05 0 0 1-.859.633 3.282 3.282 0 0 1-1.254.223c-.722 0-1.297-.15-1.726-.45a1.756 1.756 0 0 1-.749-1.236l1.488-.078c.045.22.154.388.326.504.173.114.395.17.665.17.265 0 .478-.05.639-.152.163-.104.246-.238.248-.402a.415.415 0 0 0-.174-.337c-.113-.09-.289-.159-.525-.206l-.945-.188c-.533-.107-.929-.291-1.189-.554-.259-.263-.388-.598-.388-1.005 0-.35.095-.652.285-.906a1.82 1.82 0 0 1 .806-.586c.348-.137.755-.206 1.221-.206.689 0 1.231.146 1.627.437.397.291.629.688.696 1.19zm4.574 1.577v-3.133h1.513V57h-1.452v-.99h-.057a1.613 1.613 0 0 1-.614.77c-.284.194-.631.291-1.041.291-.364 0-.685-.083-.962-.249a1.707 1.707 0 0 1-.65-.706c-.154-.306-.232-.671-.234-1.097v-3.474h1.512v3.204c.003.322.089.576.26.763.17.187.398.28.685.28.182 0 .353-.04.511-.124a.974.974 0 0 0 .384-.376 1.15 1.15 0 0 0 .145-.614zm2.723 4.367v-7.5h1.492v.917h.067c.066-.147.162-.296.288-.448a1.5 1.5 0 0 1 .497-.383c.206-.105.462-.157.767-.157.398 0 .765.105 1.101.313.336.206.605.517.806.934.201.414.302.934.302 1.559 0 .608-.098 1.122-.295 1.541-.194.417-.459.733-.795.948-.334.213-.708.32-1.123.32a1.75 1.75 0 0 1-.749-.146 1.567 1.567 0 0 1-.501-.366c-.13-.149-.229-.3-.298-.45h-.046v2.918h-1.513zm1.481-4.772c0 .324.045.607.135.848.09.242.22.43.391.565.17.133.377.199.621.199a.975.975 0 0 0 .625-.203c.171-.137.3-.326.387-.568.09-.243.135-.524.135-.841 0-.315-.044-.592-.131-.831a1.244 1.244 0 0 0-.387-.561.982.982 0 0 0-.629-.203 1 1 0 0 0-.625.196 1.22 1.22 0 0 0-.387.554c-.09.239-.135.52-.135.845zm7.333 2.833c-.561 0-1.044-.113-1.449-.34a2.338 2.338 0 0 1-.93-.973c-.218-.422-.327-.92-.327-1.495 0-.562.109-1.054.327-1.478a2.41 2.41 0 0 1 .92-.99c.397-.237.864-.356 1.399-.356.36 0 .695.058 1.005.174.312.114.585.286.817.515.234.23.416.519.546.867.131.346.196.75.196 1.214v.416h-4.606v-.938h3.182c0-.218-.048-.41-.142-.578a1.016 1.016 0 0 0-.395-.395 1.12 1.12 0 0 0-.578-.145c-.23 0-.434.053-.611.16a1.119 1.119 0 0 0-.412.422c-.099.175-.15.37-.153.586v.891c0 .27.05.503.149.7.102.196.245.348.43.455a1.3 1.3 0 0 0 .657.16c.168 0 .322-.024.462-.072a.92.92 0 0 0 .586-.561l1.399.093c-.071.336-.217.63-.437.88-.218.249-.5.443-.845.583-.343.137-.74.205-1.19.205zM189.26 57v-5.455h1.467v.952h.056c.1-.338.267-.594.501-.767.234-.175.504-.263.81-.263a2.308 2.308 0 0 1 .476.054v1.342a2.648 2.648 0 0 0-.64-.082 1.21 1.21 0 0 0-.596.146 1.072 1.072 0 0 0-.561.987V57h-1.513zm9.343-5.455L196.696 57h-1.705l-1.906-5.455h1.598l1.132 3.903h.057l1.129-3.903h1.602zm.774 5.455v-5.455h1.513V57h-1.513zm.76-6.158a.822.822 0 0 1-.579-.223.728.728 0 0 1-.238-.544c0-.208.08-.387.238-.536a.815.815 0 0 1 .579-.227.8.8 0 0 1 .575.227.72.72 0 0 1 0 1.08.807.807 0 0 1-.575.223zm6.503 2.259-1.385.085a.71.71 0 0 0-.153-.32.812.812 0 0 0-.308-.23 1.052 1.052 0 0 0-.451-.09c-.235 0-.433.05-.594.15-.161.097-.241.227-.241.39 0 .13.052.24.156.33.104.09.283.163.536.218l.988.198c.53.11.925.285 1.186.526.26.241.39.559.39.952 0 .357-.105.67-.316.94a2.05 2.05 0 0 1-.859.633 3.27 3.27 0 0 1-1.254.223c-.722 0-1.297-.15-1.725-.45a1.757 1.757 0 0 1-.75-1.236l1.488-.078c.045.22.154.388.327.504.173.114.394.17.664.17.265 0 .478-.05.639-.152.164-.104.246-.238.249-.402a.42.42 0 0 0-.174-.337c-.114-.09-.289-.159-.526-.206l-.944-.188c-.533-.107-.93-.291-1.19-.554-.258-.263-.387-.598-.387-1.005 0-.35.095-.652.284-.906.192-.253.46-.448.806-.586.348-.137.755-.206 1.222-.206.689 0 1.231.146 1.626.437.398.291.63.688.696 1.19zm3.563 4.005c-.561 0-1.044-.113-1.449-.34a2.326 2.326 0 0 1-.93-.973c-.218-.422-.327-.92-.327-1.495 0-.562.109-1.054.327-1.478a2.41 2.41 0 0 1 .919-.99c.398-.237.864-.356 1.399-.356.36 0 .695.058 1.005.174.313.114.585.286.817.515.235.23.417.519.547.867.13.346.195.75.195 1.214v.416H208.1v-.938h3.182c0-.218-.047-.41-.142-.578a1.013 1.013 0 0 0-.394-.395 1.126 1.126 0 0 0-.579-.145c-.229 0-.433.053-.611.16a1.116 1.116 0 0 0-.411.422c-.1.175-.151.37-.153.586v.891c0 .27.05.503.149.7.102.196.245.348.43.455.184.106.403.16.657.16.168 0 .322-.024.461-.072a.953.953 0 0 0 .359-.213.93.93 0 0 0 .227-.348l1.399.093a1.91 1.91 0 0 1-.436.88c-.218.249-.5.443-.846.583a3.182 3.182 0 0 1-1.189.205zm5.5-.017c-.414 0-.789-.107-1.125-.32-.334-.215-.599-.531-.796-.948-.194-.419-.291-.933-.291-1.541 0-.625.101-1.145.302-1.56.201-.416.469-.727.803-.933a2.055 2.055 0 0 1 1.104-.313c.305 0 .56.053.763.157.206.102.372.23.498.383.127.152.224.3.291.448h.046v-2.735h1.509V57h-1.491v-.874h-.064a1.956 1.956 0 0 1-.302.451 1.503 1.503 0 0 1-.501.366 1.723 1.723 0 0 1-.746.146zm.48-1.204c.244 0 .45-.066.618-.199.17-.135.3-.323.39-.565.093-.241.139-.524.139-.848 0-.325-.045-.606-.135-.845a1.21 1.21 0 0 0-.391-.554.991.991 0 0 0-.621-.196.982.982 0 0 0-.629.203c-.17.135-.299.322-.387.56-.087.24-.131.517-.131.832 0 .317.044.597.131.841.09.242.219.431.387.569.171.135.38.202.629.202zm-63.067 5.842V69h-1.512v-7.273h1.512zm3.698 7.38c-.561 0-1.044-.114-1.449-.341a2.338 2.338 0 0 1-.93-.973c-.218-.422-.327-.92-.327-1.495 0-.561.109-1.054.327-1.478a2.41 2.41 0 0 1 .92-.99c.397-.237.864-.356 1.399-.356.36 0 .695.058 1.005.174a2.244 2.244 0 0 1 1.363 1.382c.131.346.196.75.196 1.214v.416h-4.606v-.938h3.182c0-.218-.048-.41-.142-.578a1.016 1.016 0 0 0-.395-.395 1.12 1.12 0 0 0-.578-.145c-.23 0-.434.053-.611.16a1.119 1.119 0 0 0-.412.422c-.1.175-.15.37-.153.586v.891c0 .27.05.503.149.7.102.196.245.348.43.454.185.107.404.16.657.16.168 0 .322-.023.462-.07a.932.932 0 0 0 .586-.561l1.399.091a1.91 1.91 0 0 1-.437.881c-.218.249-.5.443-.845.583a3.19 3.19 0 0 1-1.19.206zm5.046-.004c-.348 0-.658-.06-.93-.181a1.495 1.495 0 0 1-.646-.543c-.157-.242-.235-.543-.235-.902 0-.303.056-.558.167-.764.111-.206.263-.372.455-.497a2.19 2.19 0 0 1 .653-.284 4.97 4.97 0 0 1 .774-.135c.317-.033.573-.064.767-.093.194-.03.335-.075.423-.134a.298.298 0 0 0 .131-.263v-.022c0-.224-.071-.398-.213-.522-.14-.123-.338-.184-.596-.184-.273 0-.489.06-.65.18a.834.834 0 0 0-.32.448l-1.399-.113c.071-.332.211-.618.419-.86.208-.243.477-.43.806-.56a3.085 3.085 0 0 1 1.151-.2c.303 0 .593.036.87.107.279.071.526.181.742.33.218.15.389.341.515.576.125.232.188.51.188.834V69h-1.435v-.756h-.042c-.088.17-.205.32-.352.45a1.628 1.628 0 0 1-.529.302 2.186 2.186 0 0 1-.714.107zm.434-1.044c.222 0 .419-.044.589-.131.17-.09.304-.211.401-.363a.935.935 0 0 0 .146-.515v-.578a.814.814 0 0 1-.195.085 3.601 3.601 0 0 1-.274.067c-.102.02-.203.037-.305.054a95.5 95.5 0 0 0-.277.039 1.861 1.861 0 0 0-.465.124.74.74 0 0 0-.309.23.56.56 0 0 0-.111.356.55.55 0 0 0 .224.472c.152.107.343.16.576.16zm3.812.941v-5.455h1.466v.952h.057c.1-.338.266-.594.501-.767.234-.175.504-.263.809-.263a2.294 2.294 0 0 1 .476.054v1.342a2.66 2.66 0 0 0-.639-.082 1.21 1.21 0 0 0-.596.146 1.065 1.065 0 0 0-.412.398c-.1.17-.15.367-.15.59V69h-1.512zm5.604-3.153V69h-1.513v-5.455h1.442v.963h.064c.121-.317.323-.568.607-.753.284-.187.629-.28 1.034-.28.379 0 .709.082.991.248.281.166.5.403.656.71.157.306.235.67.235 1.094V69h-1.513v-3.203c.002-.334-.083-.594-.256-.781-.172-.19-.41-.285-.713-.285a1.08 1.08 0 0 0-.54.132.911.911 0 0 0-.362.383 1.327 1.327 0 0 0-.132.6zM176.418 69v-5.455h1.513V69h-1.513zm.76-6.158a.822.822 0 0 1-.579-.223.728.728 0 0 1-.238-.544c0-.208.08-.387.238-.536a.815.815 0 0 1 .579-.227.8.8 0 0 1 .575.227.72.72 0 0 1 0 1.08.807.807 0 0 1-.575.223zm3.478 3.005V69h-1.513v-5.455h1.442v.963h.063c.121-.317.324-.568.608-.753.284-.187.628-.28 1.033-.28.379 0 .709.082.991.248.282.166.501.403.657.71.156.306.234.67.234 1.094V69h-1.513v-3.203c.003-.334-.082-.594-.255-.781-.173-.19-.411-.285-.714-.285a1.08 1.08 0 0 0-.54.132.917.917 0 0 0-.362.383 1.328 1.328 0 0 0-.131.6zm7.165 5.312c-.49 0-.91-.067-1.261-.202a2.093 2.093 0 0 1-.831-.544 1.674 1.674 0 0 1-.401-.774l1.399-.188c.043.109.11.21.203.305.092.095.214.17.365.228.154.059.341.088.561.088.329 0 .6-.08.814-.241.215-.159.323-.425.323-.799v-.998h-.064a1.443 1.443 0 0 1-.81.76 1.964 1.964 0 0 1-.746.128c-.409 0-.782-.095-1.118-.284-.334-.192-.6-.484-.799-.877-.197-.396-.295-.895-.295-1.499 0-.618.101-1.134.302-1.548.201-.415.469-.725.802-.93a2.078 2.078 0 0 1 1.105-.31c.305 0 .561.053.767.157.206.102.372.23.497.383.128.152.226.3.295.448h.057v-.917h1.502v5.508c0 .464-.114.853-.341 1.165a2.049 2.049 0 0 1-.945.703c-.4.159-.86.238-1.381.238zm.032-3.374c.244 0 .45-.06.618-.18.17-.124.3-.299.39-.526.093-.23.139-.504.139-.824 0-.32-.045-.597-.135-.831-.09-.237-.22-.42-.391-.55a.991.991 0 0 0-.621-.196.982.982 0 0 0-.629.203c-.17.132-.299.317-.387.554a2.37 2.37 0 0 0-.131.82c0 .315.044.587.131.817.09.227.219.403.387.529.171.123.38.184.629.184zm-26.398 50.293a1.604 1.604 0 0 0-.21-.458 1.419 1.419 0 0 0-.771-.558 1.881 1.881 0 0 0-.543-.074c-.372 0-.698.092-.98.277a1.817 1.817 0 0 0-.653.806c-.157.35-.235.779-.235 1.286 0 .506.077.937.231 1.292.154.355.372.626.653.813.282.185.615.277.998.277.348 0 .645-.061.892-.184a1.33 1.33 0 0 0 .568-.529 1.58 1.58 0 0 0 .199-.807l.312.047h-1.875v-1.158h3.044v.916c0 .639-.135 1.189-.405 1.648-.27.457-.642.81-1.115 1.058-.474.246-1.016.369-1.627.369-.682 0-1.281-.15-1.797-.451a3.127 3.127 0 0 1-1.207-1.289c-.287-.558-.43-1.221-.43-1.988 0-.59.085-1.115.256-1.577.173-.464.414-.857.724-1.179a3.145 3.145 0 0 1 1.083-.735 3.515 3.515 0 0 1 1.339-.252c.412 0 .796.06 1.151.181.355.118.67.286.944.504.277.218.503.477.679.778.175.298.287.627.337.987h-1.562zm5.242 5.029c-.561 0-1.044-.114-1.449-.341a2.334 2.334 0 0 1-.93-.973c-.218-.422-.327-.92-.327-1.495 0-.561.109-1.054.327-1.478.217-.423.524-.754.919-.99.398-.237.865-.356 1.4-.356.359 0 .694.058 1.005.174a2.244 2.244 0 0 1 1.363 1.382c.13.345.195.75.195 1.214v.416h-4.605v-.938h3.181c0-.218-.047-.41-.142-.579a1.015 1.015 0 0 0-.394-.394 1.121 1.121 0 0 0-.579-.145c-.229 0-.433.053-.61.159a1.122 1.122 0 0 0-.412.423c-.1.175-.151.371-.153.586v.891c0 .27.05.503.149.7.102.196.245.348.43.454.184.107.403.16.657.16.168 0 .322-.023.461-.071a.923.923 0 0 0 .586-.561l1.4.093a1.92 1.92 0 0 1-.437.88c-.218.249-.5.443-.845.583-.344.137-.74.206-1.19.206zm5.003-3.26V123h-1.512v-5.455h1.441v.963h.064c.121-.317.324-.568.608-.753.284-.187.628-.281 1.033-.281.379 0 .709.083.991.249.281.166.5.402.657.71.156.306.234.67.234 1.094V123h-1.513v-3.203c.003-.334-.083-.594-.255-.781-.173-.19-.411-.284-.714-.284a1.08 1.08 0 0 0-.54.131.912.912 0 0 0-.362.383 1.343 1.343 0 0 0-.132.601zm7.194 3.26c-.561 0-1.044-.114-1.449-.341a2.34 2.34 0 0 1-.93-.973c-.218-.422-.327-.92-.327-1.495 0-.561.109-1.054.327-1.478a2.41 2.41 0 0 1 .92-.99c.397-.237.864-.356 1.399-.356.36 0 .695.058 1.005.174.312.114.585.286.817.515.234.23.416.519.546.867.131.345.196.75.196 1.214v.416h-4.606v-.938h3.182c0-.218-.048-.41-.142-.579a1.022 1.022 0 0 0-.394-.394 1.126 1.126 0 0 0-.579-.145 1.13 1.13 0 0 0-1.023.582c-.099.175-.15.371-.153.586v.891c0 .27.05.503.149.7.102.196.245.348.43.454.185.107.404.16.657.16.168 0 .322-.023.462-.071a.925.925 0 0 0 .586-.561l1.399.093a1.911 1.911 0 0 1-.437.88c-.218.249-.5.443-.845.583-.343.137-.74.206-1.19.206zm3.491-.107v-5.455h1.467v.952h.056c.1-.338.267-.594.501-.767.234-.175.504-.263.81-.263a2.17 2.17 0 0 1 .476.054v1.342a2.758 2.758 0 0 0-.64-.082 1.21 1.21 0 0 0-.596.146 1.071 1.071 0 0 0-.561.987V123h-1.513zm5.491.103c-.348 0-.658-.06-.931-.181a1.5 1.5 0 0 1-.646-.543c-.156-.242-.234-.543-.234-.902 0-.303.055-.558.167-.764.111-.206.262-.372.454-.497.192-.126.41-.22.654-.284.246-.064.504-.109.774-.135.317-.033.573-.064.767-.092.194-.031.335-.076.422-.135a.297.297 0 0 0 .132-.263v-.021c0-.225-.071-.399-.213-.523-.14-.123-.339-.184-.597-.184-.272 0-.489.06-.65.181a.829.829 0 0 0-.319.447l-1.399-.113c.071-.332.21-.618.419-.86.208-.243.477-.43.806-.561a3.092 3.092 0 0 1 1.15-.199c.303 0 .593.036.87.107.28.071.527.181.742.33.218.149.39.341.515.576.126.232.189.51.189.834V123h-1.435v-.756h-.043a1.54 1.54 0 0 1-.351.451 1.635 1.635 0 0 1-.529.301 2.188 2.188 0 0 1-.714.107zm.433-1.044c.223 0 .419-.044.59-.131.17-.09.304-.211.401-.363a.933.933 0 0 0 .145-.515v-.578a.829.829 0 0 1-.195.085c-.08.023-.171.046-.273.067l-.306.054-.277.039a1.872 1.872 0 0 0-.465.124.754.754 0 0 0-.309.231.563.563 0 0 0-.11.355c0 .206.075.363.224.472.151.107.343.16.575.16zm6.714-4.514v1.137h-3.285v-1.137h3.285zm-2.54-1.306h1.513v5.085a.7.7 0 0 0 .064.327.352.352 0 0 0 .178.159.727.727 0 0 0 .27.047c.071 0 .142-.006.213-.018l.163-.032.238 1.126c-.076.023-.182.05-.32.081a2.634 2.634 0 0 1-.5.061 2.304 2.304 0 0 1-.959-.146 1.342 1.342 0 0 1-.636-.518c-.151-.235-.226-.531-.224-.888v-5.284zm3.525 6.761v-5.455h1.513V123h-1.513zm.76-6.158a.822.822 0 0 1-.579-.223.726.726 0 0 1-.238-.544c0-.208.079-.387.238-.536a.817.817 0 0 1 .579-.227c.225 0 .417.076.575.227a.723.723 0 0 1 0 1.08.808.808 0 0 1-.575.223zm7.05.703L201.911 123h-1.705l-1.907-5.455h1.598l1.133 3.903h.057l1.129-3.903h1.602zm3.084 5.562c-.561 0-1.044-.114-1.449-.341a2.34 2.34 0 0 1-.93-.973c-.218-.422-.327-.92-.327-1.495 0-.561.109-1.054.327-1.478.218-.423.524-.754.919-.99.398-.237.865-.356 1.4-.356.359 0 .694.058 1.005.174a2.244 2.244 0 0 1 1.363 1.382c.13.345.196.75.196 1.214v.416H204.8v-.938h3.182c0-.218-.048-.41-.143-.579a1.015 1.015 0 0 0-.394-.394 1.121 1.121 0 0 0-.579-.145c-.229 0-.433.053-.61.159a1.122 1.122 0 0 0-.412.423c-.1.175-.151.371-.153.586v.891c0 .27.05.503.149.7.102.196.245.348.43.454.185.107.404.16.657.16.168 0 .322-.023.461-.071a.923.923 0 0 0 .586-.561l1.4.093a1.911 1.911 0 0 1-.437.88c-.218.249-.5.443-.845.583-.344.137-.74.206-1.19.206zm7.087-.107h-1.648l2.511-7.273h1.982l2.507 7.273h-1.648l-1.822-5.611h-.057L213.989 123zm-.103-2.859h3.892v1.201h-3.892v-1.201zm7.868-4.414V123h-1.538v-7.273h1.538zM44.552 163v-7.273h2.87c.549 0 1.017.099 1.406.295.39.194.687.47.89.827.207.356.31.773.31 1.254 0 .483-.104.898-.313 1.246-.208.346-.51.611-.905.796-.393.185-.869.277-1.428.277h-1.92v-1.236h1.672c.293 0 .537-.04.731-.121a.866.866 0 0 0 .433-.362c.097-.161.146-.361.146-.6 0-.241-.049-.445-.146-.611a.89.89 0 0 0-.436-.376c-.194-.088-.44-.132-.735-.132H46.09V163h-1.538zm3.928-3.31 1.807 3.31H48.59l-1.769-3.31h1.659zm5.004 3.417c-.561 0-1.044-.114-1.449-.341a2.337 2.337 0 0 1-.93-.973c-.218-.422-.327-.92-.327-1.495 0-.561.109-1.054.327-1.478a2.41 2.41 0 0 1 .92-.99c.397-.237.864-.356 1.399-.356.36 0 .694.058 1.005.174a2.243 2.243 0 0 1 1.363 1.382c.13.345.196.75.196 1.214v.416h-4.606v-.938h3.182c0-.218-.048-.41-.142-.579a1.02 1.02 0 0 0-.395-.394 1.124 1.124 0 0 0-.578-.145 1.131 1.131 0 0 0-1.023.582c-.1.175-.15.371-.153.586v.891c0 .27.05.503.15.7.101.196.244.348.429.454.185.107.404.16.657.16.168 0 .322-.023.462-.071a.932.932 0 0 0 .586-.561l1.399.093a1.909 1.909 0 0 1-.437.88c-.218.249-.5.443-.845.583-.344.137-.74.206-1.19.206zm3.49-.107v-5.455h1.514V163h-1.513zm.76-6.158a.822.822 0 0 1-.578-.223.727.727 0 0 1-.238-.544.71.71 0 0 1 .238-.536.817.817 0 0 1 .579-.227c.225 0 .416.076.575.227a.722.722 0 0 1 0 1.08.81.81 0 0 1-.575.223zm3.478 3.005V163H59.7v-5.455h1.442v.963h.064a1.52 1.52 0 0 1 .607-.753c.284-.187.629-.281 1.034-.281.379 0 .709.083.99.249.282.166.501.402.657.71.157.306.235.67.235 1.094V163h-1.513v-3.203c.002-.334-.083-.594-.256-.781-.173-.19-.41-.284-.713-.284a1.08 1.08 0 0 0-.54.131.917.917 0 0 0-.362.383 1.33 1.33 0 0 0-.132.601zm7.641-2.302v1.137h-3.366v-1.137h3.366zM66.257 163v-5.849c0-.395.077-.723.231-.983.156-.261.37-.456.64-.586a2.08 2.08 0 0 1 .92-.196 4.081 4.081 0 0 1 1.069.15l-.27 1.136a1.77 1.77 0 0 0-.484-.078c-.222 0-.377.052-.465.156-.087.102-.131.245-.131.43V163h-1.51zm5.79.107c-.552 0-1.029-.118-1.431-.352a2.41 2.41 0 0 1-.927-.987c-.218-.424-.327-.915-.327-1.474 0-.563.109-1.056.327-1.477.218-.424.527-.753.927-.987.402-.237.88-.356 1.43-.356.552 0 1.028.119 1.428.356.403.234.713.563.93.987.219.421.327.914.327 1.477 0 .559-.108 1.05-.326 1.474-.218.421-.528.75-.93.987-.4.234-.877.352-1.428.352zm.007-1.172a.94.94 0 0 0 .628-.213c.168-.145.295-.341.38-.59a2.53 2.53 0 0 0 .132-.849c0-.317-.044-.6-.132-.848a1.325 1.325 0 0 0-.38-.59.932.932 0 0 0-.628-.216.965.965 0 0 0-.64.216c-.17.145-.299.341-.386.59a2.605 2.605 0 0 0-.128.848c0 .318.042.601.127.849.088.249.217.445.388.59a.974.974 0 0 0 .639.213zM75.715 163v-5.455h1.467v.952h.056c.1-.338.267-.594.501-.767.234-.175.504-.263.81-.263a2.17 2.17 0 0 1 .476.054v1.342a2.753 2.753 0 0 0-.64-.082c-.222 0-.42.049-.596.146a1.071 1.071 0 0 0-.561.987V163h-1.513zm6.302.107c-.558 0-1.039-.119-1.441-.356-.4-.239-.708-.57-.924-.994-.213-.424-.32-.911-.32-1.463 0-.559.109-1.049.324-1.47.218-.424.527-.754.927-.991.4-.239.876-.359 1.427-.359.476 0 .893.087 1.25.26.358.172.64.415.849.728.208.312.323.679.345 1.1h-1.428a1.098 1.098 0 0 0-.32-.656c-.17-.169-.394-.253-.67-.253-.235 0-.44.064-.615.192a1.222 1.222 0 0 0-.405.551 2.348 2.348 0 0 0-.146.877c0 .348.048.644.142.888.097.243.234.429.409.557.175.128.38.192.614.192a.998.998 0 0 0 .465-.107.898.898 0 0 0 .345-.309c.092-.137.153-.302.18-.493h1.428a2.241 2.241 0 0 1-.34 1.101 2.06 2.06 0 0 1-.835.738c-.355.178-.775.267-1.26.267zm5.89 0c-.56 0-1.043-.114-1.448-.341a2.337 2.337 0 0 1-.93-.973c-.218-.422-.327-.92-.327-1.495 0-.561.109-1.054.327-1.478.217-.423.524-.754.92-.99.397-.237.863-.356 1.398-.356.36 0 .695.058 1.006.174a2.242 2.242 0 0 1 1.363 1.382c.13.345.195.75.195 1.214v.416h-4.605v-.938h3.181c0-.218-.047-.41-.142-.579a1.019 1.019 0 0 0-.394-.394 1.125 1.125 0 0 0-.579-.145 1.132 1.132 0 0 0-1.023.582c-.099.175-.15.371-.152.586v.891c0 .27.05.503.15.7.1.196.244.348.429.454.184.107.403.16.657.16.168 0 .322-.023.461-.071a.93.93 0 0 0 .586-.561l1.4.093a1.909 1.909 0 0 1-.437.88c-.218.249-.5.443-.846.583-.343.137-.74.206-1.19.206zM91.4 163v-5.455h1.441v.963h.064c.114-.32.303-.572.569-.757.265-.184.582-.277.951-.277.374 0 .693.094.955.281.263.185.438.436.526.753h.057c.111-.313.312-.562.603-.749.294-.19.64-.285 1.041-.285.509 0 .922.163 1.24.487.319.322.479.779.479 1.371V163h-1.51v-3.37c0-.303-.08-.53-.241-.682a.848.848 0 0 0-.604-.227c-.274 0-.489.087-.642.263-.154.172-.231.401-.231.685V163H94.63v-3.402c0-.268-.077-.481-.23-.639a.79.79 0 0 0-.6-.238.827.827 0 0 0-.455.128.881.881 0 0 0-.316.351 1.12 1.12 0 0 0-.118.526V163H91.4zm11.607.107c-.562 0-1.045-.114-1.449-.341a2.336 2.336 0 0 1-.931-.973c-.218-.422-.326-.92-.326-1.495 0-.561.108-1.054.326-1.478.218-.423.525-.754.92-.99.398-.237.864-.356 1.399-.356.36 0 .695.058 1.005.174.313.114.585.286.817.515.234.23.417.519.547.867.13.345.195.75.195 1.214v.416h-4.606v-.938h3.182c0-.218-.047-.41-.142-.579a1.022 1.022 0 0 0-.394-.394 1.126 1.126 0 0 0-.579-.145 1.137 1.137 0 0 0-1.023.582c-.099.175-.15.371-.152.586v.891c0 .27.049.503.149.7.102.196.245.348.429.454.185.107.404.16.657.16.168 0 .322-.023.462-.071a.953.953 0 0 0 .359-.213.935.935 0 0 0 .227-.348l1.399.093a1.911 1.911 0 0 1-.437.88 2.184 2.184 0 0 1-.845.583c-.343.137-.74.206-1.189.206zm5.003-3.26V163h-1.513v-5.455h1.442v.963h.064c.121-.317.323-.568.607-.753.284-.187.629-.281 1.034-.281.378 0 .709.083.99.249.282.166.501.402.657.71.157.306.235.67.235 1.094V163h-1.513v-3.203c.002-.334-.083-.594-.256-.781-.173-.19-.411-.284-.714-.284-.203 0-.383.043-.539.131a.92.92 0 0 0-.363.383 1.33 1.33 0 0 0-.131.601zm7.609-2.302v1.137h-3.285v-1.137h3.285zm-2.539-1.306h1.513v5.085c0 .14.021.248.064.327a.354.354 0 0 0 .177.159.735.735 0 0 0 .27.047c.071 0 .142-.006.213-.018l.164-.032.238 1.126a4.94 4.94 0 0 1-.32.081 2.635 2.635 0 0 1-.501.061 2.302 2.302 0 0 1-.958-.146 1.333 1.333 0 0 1-.636-.518c-.152-.235-.226-.531-.224-.888v-5.284zm-35.05 11.488V175h-1.513v-7.273h1.513zm3.697 7.38c-.56 0-1.044-.114-1.449-.341a2.337 2.337 0 0 1-.93-.973c-.218-.422-.327-.92-.327-1.495 0-.561.11-1.054.327-1.478a2.41 2.41 0 0 1 .92-.99c.397-.237.864-.356 1.399-.356.36 0 .695.058 1.005.174a2.243 2.243 0 0 1 1.363 1.382c.13.345.196.75.196 1.214v.416h-4.606v-.938h3.182c0-.218-.048-.41-.142-.579a1.02 1.02 0 0 0-.395-.394 1.124 1.124 0 0 0-.578-.145 1.131 1.131 0 0 0-1.023.582c-.1.175-.15.371-.153.586v.891c0 .27.05.503.15.7.101.196.244.348.43.454.184.107.403.16.656.16.168 0 .322-.023.462-.071a.932.932 0 0 0 .586-.561l1.399.093a1.909 1.909 0 0 1-.437.88c-.218.249-.5.443-.845.583-.343.137-.74.206-1.19.206zm5.046-.004c-.348 0-.658-.06-.93-.181a1.497 1.497 0 0 1-.646-.543c-.157-.242-.235-.543-.235-.902 0-.303.056-.558.167-.764.112-.206.263-.372.455-.497.192-.126.41-.22.653-.284.246-.064.504-.109.774-.135.317-.033.573-.064.767-.092.195-.031.335-.076.423-.135a.298.298 0 0 0 .131-.263v-.021c0-.225-.07-.399-.213-.523-.14-.123-.338-.184-.596-.184-.273 0-.49.06-.65.181a.83.83 0 0 0-.32.447l-1.399-.113c.071-.332.21-.618.42-.86.207-.243.476-.43.805-.561a3.094 3.094 0 0 1 1.15-.199c.304 0 .594.036.87.107.28.071.528.181.743.33.218.149.39.341.515.576.125.232.188.51.188.834V175H88.41v-.756h-.042a1.56 1.56 0 0 1-.352.451 1.635 1.635 0 0 1-.529.301 2.188 2.188 0 0 1-.714.107zm.434-1.044c.222 0 .419-.044.59-.131.17-.09.303-.211.4-.363a.933.933 0 0 0 .146-.515v-.578a.843.843 0 0 1-.195.085 3.76 3.76 0 0 1-.274.067 16.28 16.28 0 0 1-.305.054l-.277.039a1.863 1.863 0 0 0-.465.124.747.747 0 0 0-.31.231.56.56 0 0 0-.11.355c0 .206.075.363.224.472.152.107.344.16.576.16zm3.812.941v-5.455h1.466v.952h.057c.1-.338.267-.594.5-.767a1.32 1.32 0 0 1 .81-.263 2.169 2.169 0 0 1 .476.054v1.342a2.755 2.755 0 0 0-.64-.082c-.221 0-.42.049-.595.146a1.071 1.071 0 0 0-.561.987V175h-1.513zm5.604-3.153V175H95.11v-5.455h1.441v.963h.064c.121-.317.323-.568.608-.753.284-.187.628-.281 1.033-.281.379 0 .709.083.99.249.282.166.501.402.658.71.156.306.234.67.234 1.094V175h-1.513v-3.203c.002-.334-.083-.594-.255-.781-.173-.19-.411-.284-.714-.284a1.08 1.08 0 0 0-.54.131.918.918 0 0 0-.362.383 1.332 1.332 0 0 0-.132.601zM101.33 175v-5.455h1.513V175h-1.513zm.76-6.158a.822.822 0 0 1-.579-.223.73.73 0 0 1 0-1.08.817.817 0 0 1 .579-.227c.225 0 .417.076.575.227a.723.723 0 0 1 0 1.08.808.808 0 0 1-.575.223zm3.478 3.005V175h-1.513v-5.455h1.442v.963h.064a1.52 1.52 0 0 1 .607-.753c.284-.187.628-.281 1.033-.281.379 0 .709.083.991.249.282.166.501.402.657.71.156.306.234.67.234 1.094V175h-1.513v-3.203c.003-.334-.082-.594-.255-.781-.173-.19-.411-.284-.714-.284-.204 0-.383.043-.54.131a.919.919 0 0 0-.362.383 1.33 1.33 0 0 0-.131.601zm7.165 5.312c-.49 0-.91-.067-1.261-.202a2.094 2.094 0 0 1-.831-.544 1.668 1.668 0 0 1-.401-.774l1.399-.188c.043.109.11.211.203.305a.982.982 0 0 0 .365.228c.154.059.341.088.561.088.33 0 .601-.08.814-.241.215-.159.323-.425.323-.799v-.998h-.064a1.437 1.437 0 0 1-.298.43 1.5 1.5 0 0 1-.512.33 1.968 1.968 0 0 1-.745.128c-.41 0-.783-.095-1.119-.284-.334-.192-.6-.484-.799-.877-.197-.396-.295-.895-.295-1.499 0-.618.101-1.134.302-1.548.201-.415.469-.725.803-.931a2.072 2.072 0 0 1 1.104-.309c.305 0 .561.053.767.157.206.101.372.229.497.383.128.152.226.301.295.448h.057v-.917h1.502v5.508c0 .464-.114.853-.341 1.165a2.043 2.043 0 0 1-.945.703c-.4.159-.86.238-1.381.238zm.032-3.373c.244 0 .45-.061.618-.182.17-.123.3-.298.39-.525.093-.23.139-.504.139-.824 0-.32-.045-.597-.135-.831-.09-.237-.22-.42-.391-.55a.987.987 0 0 0-.621-.196.983.983 0 0 0-.629.203c-.17.132-.299.317-.387.554-.087.236-.131.51-.131.82 0 .315.044.587.131.817.09.227.219.403.387.529.171.123.38.185.629.185z"/></svg>